<svg version="1.0" xmlns="http://www.w3.org/2000/svg"
     width="498.000000pt" height="90.000000pt" viewBox="0 0 498.000000 90.000000"
     preserveAspectRatio="xMinYMax meet">
    <g transform="translate(0.000000,90.000000) scale(0.100000,-0.100000)"
       fill="#000000" stroke="none">
        <path d="M174 761 c-46 -28 -101 -98 -126 -160 -18 -46 -22 -77 -22 -176 -1
-109 1 -125 24 -169 14 -28 42 -64 63 -80 35 -28 48 -31 119 -35 98 -4 152 14
201 68 38 42 56 104 36 127 -6 8 -26 14 -44 14 -29 0 -37 -6 -64 -51 -53 -85
-132 -99 -190 -33 -68 77 -49 284 35 383 41 47 67 52 91 15 24 -38 24 -155 0
-182 -25 -28 -14 -59 24 -67 41 -9 65 14 85 84 31 103 -1 233 -66 266 -41 21
-128 19 -166 -4z"/>
        <path d="M3287 761 c-20 -10 -40 -15 -43 -10 -3 5 -22 9 -43 9 -69 0 -71 -7
-72 -263 -1 -125 -6 -227 -10 -227 -16 0 -10 -60 6 -66 8 -4 15 -14 15 -23 0
-9 5 -22 12 -29 15 -15 74 -16 83 -2 3 5 46 10 94 10 74 0 95 4 139 26 68 34
102 82 102 145 0 45 -26 89 -58 100 -8 3 -4 20 13 53 19 38 25 65 25 115 0 79
-21 126 -69 158 -44 30 -139 32 -194 4z m142 -95 c17 -20 17 -96 1 -136 -16
-38 -52 -58 -124 -66 l-56 -7 0 47 c0 69 47 151 104 180 31 16 51 11 75 -18z
m-19 -299 c58 -15 65 -43 20 -80 -43 -37 -100 -51 -150 -37 l-40 11 0 59 0 60
63 -1 c34 0 82 -6 107 -12z"/>
        <path d="M4570 765 c-16 -20 -15 -592 2 -612 14 -17 83 -17 97 0 6 8 8 33 4
66 l-6 52 78 -81 c68 -69 83 -80 112 -80 80 0 98 49 34 89 -46 28 -164 158
-158 175 2 6 40 38 85 71 81 60 92 78 72 116 -19 35 -74 25 -128 -23 -26 -23
-58 -51 -71 -63 l-23 -20 4 157 c4 129 2 158 -9 163 -28 10 -81 5 -93 -10z"/>
        <path d="M1513 658 c-4 -7 -8 -40 -8 -73 0 -52 -3 -60 -20 -63 -28 -5 -55 -32
-55 -52 0 -19 19 -30 51 -30 18 0 19 -8 19 -112 0 -134 10 -162 58 -166 57 -6
60 4 54 147 l-5 129 37 12 c32 10 37 16 34 38 -2 20 -11 29 -34 36 -30 9 -30
10 -26 63 3 34 0 58 -8 68 -15 18 -86 20 -97 3z"/>
        <path d="M2633 658 c-4 -7 -8 -40 -8 -73 0 -52 -3 -60 -20 -63 -28 -5 -55 -32
-55 -52 0 -19 19 -30 51 -30 18 0 19 -8 19 -112 0 -134 10 -162 58 -166 57 -6
60 4 54 147 l-5 129 37 12 c32 10 37 16 34 38 -2 20 -11 29 -34 36 -30 9 -30
10 -26 63 3 34 0 58 -8 68 -15 18 -86 20 -97 3z"/>
        <path d="M667 530 c-103 -90 -111 -310 -13 -372 25 -15 45 -18 103 -16 64 3
76 7 104 33 105 99 81 307 -42 371 -15 7 -48 14 -73 14 -36 0 -52 -6 -79 -30z
m139 -105 c28 -68 10 -171 -35 -195 -18 -9 -25 -7 -47 15 -24 24 -26 32 -22
93 4 79 28 122 65 122 18 0 28 -9 39 -35z"/>
        <path d="M1041 547 c-7 -7 -11 -76 -11 -187 0 -206 2 -213 70 -208 l45 3 0
106 c0 100 2 108 30 155 17 27 37 49 45 49 26 0 39 -66 39 -192 1 -121 1 -123
25 -129 13 -3 37 -4 52 -2 l29 3 0 140 c-1 120 -4 146 -22 186 -32 72 -67 88
-190 87 -58 0 -106 -5 -112 -11z"/>
        <path d="M2258 541 c-40 -32 -81 -135 -86 -217 -4 -61 -1 -78 18 -111 12 -22
35 -47 50 -56 35 -21 140 -23 179 -3 40 21 91 83 91 110 0 24 -28 56 -49 56
-9 0 -10 6 -5 18 13 28 16 139 5 160 -15 28 -90 62 -138 62 -25 0 -50 -7 -65
-19z m107 -104 c4 -18 2 -44 -4 -60 -14 -36 -5 -55 31 -65 l30 -7 -22 -28
c-12 -15 -34 -34 -50 -42 -25 -13 -29 -13 -46 6 -31 35 -21 154 17 203 27 34
37 33 44 -7z"/>
        <path d="M3757 530 c-103 -90 -111 -310 -13 -372 25 -15 45 -18 103 -16 64 3
76 7 104 33 105 99 81 307 -42 371 -15 7 -48 14 -73 14 -36 0 -52 -6 -79 -30z
m139 -105 c28 -68 10 -171 -35 -195 -18 -9 -25 -7 -47 15 -24 24 -26 32 -22
93 4 79 28 122 65 122 18 0 28 -9 39 -35z"/>
        <path d="M4197 530 c-103 -90 -111 -310 -13 -372 25 -15 45 -18 103 -16 64 3
76 7 104 33 105 99 81 307 -42 371 -15 7 -48 14 -73 14 -36 0 -52 -6 -79 -30z
m139 -105 c28 -68 10 -171 -35 -195 -18 -9 -25 -7 -47 15 -24 24 -26 32 -22
93 4 79 28 122 65 122 18 0 28 -9 39 -35z"/>
        <path d="M1785 517 c-28 -28 -35 -43 -35 -74 0 -49 14 -63 62 -63 33 0 38 3
38 23 0 27 17 52 42 60 23 8 48 -24 48 -61 0 -32 0 -32 -51 -32 -94 0 -169
-57 -169 -130 0 -30 6 -43 31 -64 39 -33 65 -39 139 -34 43 3 61 1 64 -9 8
-20 92 -17 100 3 10 27 7 257 -5 297 -6 22 -25 55 -44 75 -32 35 -36 37 -109
40 -75 4 -76 4 -111 -31z"/>
    </g>
</svg>
